<mxfile host="app.diagrams.net" modified="2023-06-14T16:24:04.662Z" agent="Mozilla/5.0 (Windows NT 10.0; Win64; x64) AppleWebKit/537.36 (KHTML, like Gecko) Chrome/114.0.0.0 Safari/537.36" etag="GAzbO3qXI4QZrHQtVYnu" version="21.3.8" type="github">
  <diagram id="C5RBs43oDa-KdzZeNtuy" name="Page-1">
    <mxGraphModel dx="526" dy="790" grid="1" gridSize="10" guides="1" tooltips="1" connect="1" arrows="1" fold="1" page="1" pageScale="1" pageWidth="827" pageHeight="1169" math="0" shadow="0">
      <root>
        <mxCell id="WIyWlLk6GJQsqaUBKTNV-0" />
        <mxCell id="WIyWlLk6GJQsqaUBKTNV-1" parent="WIyWlLk6GJQsqaUBKTNV-0" />
        <mxCell id="pJbdp-igxGVZgu7KEz1X-67" value="" style="edgeStyle=orthogonalEdgeStyle;rounded=0;orthogonalLoop=1;jettySize=auto;html=1;" edge="1" parent="WIyWlLk6GJQsqaUBKTNV-1" source="WIyWlLk6GJQsqaUBKTNV-3" target="pJbdp-igxGVZgu7KEz1X-66">
          <mxGeometry relative="1" as="geometry" />
        </mxCell>
        <mxCell id="WIyWlLk6GJQsqaUBKTNV-3" value="START" style="rounded=1;whiteSpace=wrap;html=1;fontSize=12;glass=0;strokeWidth=1;shadow=0;" parent="WIyWlLk6GJQsqaUBKTNV-1" vertex="1">
          <mxGeometry x="260" y="30" width="120" height="40" as="geometry" />
        </mxCell>
        <mxCell id="WIyWlLk6GJQsqaUBKTNV-5" value="False" style="edgeStyle=orthogonalEdgeStyle;rounded=0;html=1;jettySize=auto;orthogonalLoop=1;fontSize=11;endArrow=block;endFill=0;endSize=8;strokeWidth=1;shadow=0;labelBackgroundColor=none;entryX=0;entryY=0.5;entryDx=0;entryDy=0;" parent="WIyWlLk6GJQsqaUBKTNV-1" source="WIyWlLk6GJQsqaUBKTNV-6" target="pJbdp-igxGVZgu7KEz1X-1" edge="1">
          <mxGeometry x="-0.005" y="-10" relative="1" as="geometry">
            <mxPoint x="10" y="-10" as="offset" />
            <mxPoint x="370" y="220" as="targetPoint" />
          </mxGeometry>
        </mxCell>
        <mxCell id="WIyWlLk6GJQsqaUBKTNV-11" value="END" style="rounded=1;whiteSpace=wrap;html=1;fontSize=12;glass=0;strokeWidth=1;shadow=0;" parent="WIyWlLk6GJQsqaUBKTNV-1" vertex="1">
          <mxGeometry x="80" y="450" width="120" height="40" as="geometry" />
        </mxCell>
        <mxCell id="pJbdp-igxGVZgu7KEz1X-10" value="False" style="edgeStyle=orthogonalEdgeStyle;rounded=0;orthogonalLoop=1;jettySize=auto;html=1;" edge="1" parent="WIyWlLk6GJQsqaUBKTNV-1" source="pJbdp-igxGVZgu7KEz1X-0" target="pJbdp-igxGVZgu7KEz1X-9">
          <mxGeometry relative="1" as="geometry" />
        </mxCell>
        <mxCell id="pJbdp-igxGVZgu7KEz1X-36" value="True" style="edgeStyle=orthogonalEdgeStyle;rounded=0;orthogonalLoop=1;jettySize=auto;html=1;" edge="1" parent="WIyWlLk6GJQsqaUBKTNV-1" source="pJbdp-igxGVZgu7KEz1X-0" target="pJbdp-igxGVZgu7KEz1X-34">
          <mxGeometry relative="1" as="geometry" />
        </mxCell>
        <mxCell id="pJbdp-igxGVZgu7KEz1X-0" value="Input == 2" style="rhombus;whiteSpace=wrap;html=1;" vertex="1" parent="WIyWlLk6GJQsqaUBKTNV-1">
          <mxGeometry x="510" y="230" width="80" height="80" as="geometry" />
        </mxCell>
        <mxCell id="pJbdp-igxGVZgu7KEz1X-5" value="False" style="edgeStyle=orthogonalEdgeStyle;rounded=0;orthogonalLoop=1;jettySize=auto;html=1;" edge="1" parent="WIyWlLk6GJQsqaUBKTNV-1" source="pJbdp-igxGVZgu7KEz1X-1" target="pJbdp-igxGVZgu7KEz1X-0">
          <mxGeometry relative="1" as="geometry" />
        </mxCell>
        <mxCell id="pJbdp-igxGVZgu7KEz1X-35" value="True" style="edgeStyle=orthogonalEdgeStyle;rounded=0;orthogonalLoop=1;jettySize=auto;html=1;" edge="1" parent="WIyWlLk6GJQsqaUBKTNV-1" source="pJbdp-igxGVZgu7KEz1X-1" target="pJbdp-igxGVZgu7KEz1X-33">
          <mxGeometry relative="1" as="geometry" />
        </mxCell>
        <mxCell id="pJbdp-igxGVZgu7KEz1X-1" value="Input == 1" style="rhombus;whiteSpace=wrap;html=1;" vertex="1" parent="WIyWlLk6GJQsqaUBKTNV-1">
          <mxGeometry x="350" y="230" width="80" height="80" as="geometry" />
        </mxCell>
        <mxCell id="pJbdp-igxGVZgu7KEz1X-32" value="" style="edgeStyle=orthogonalEdgeStyle;rounded=0;orthogonalLoop=1;jettySize=auto;html=1;" edge="1" parent="WIyWlLk6GJQsqaUBKTNV-1" source="pJbdp-igxGVZgu7KEz1X-9" target="pJbdp-igxGVZgu7KEz1X-28">
          <mxGeometry relative="1" as="geometry" />
        </mxCell>
        <mxCell id="pJbdp-igxGVZgu7KEz1X-38" value="" style="edgeStyle=orthogonalEdgeStyle;rounded=0;orthogonalLoop=1;jettySize=auto;html=1;" edge="1" parent="WIyWlLk6GJQsqaUBKTNV-1" source="pJbdp-igxGVZgu7KEz1X-9" target="pJbdp-igxGVZgu7KEz1X-37">
          <mxGeometry relative="1" as="geometry" />
        </mxCell>
        <mxCell id="pJbdp-igxGVZgu7KEz1X-9" value="Input == 3" style="rhombus;whiteSpace=wrap;html=1;" vertex="1" parent="WIyWlLk6GJQsqaUBKTNV-1">
          <mxGeometry x="510" y="120" width="80" height="80" as="geometry" />
        </mxCell>
        <mxCell id="pJbdp-igxGVZgu7KEz1X-15" value="A" style="ellipse;whiteSpace=wrap;html=1;" vertex="1" parent="WIyWlLk6GJQsqaUBKTNV-1">
          <mxGeometry x="630" y="20" width="80" height="80" as="geometry" />
        </mxCell>
        <mxCell id="pJbdp-igxGVZgu7KEz1X-26" value="" style="edgeStyle=orthogonalEdgeStyle;rounded=0;orthogonalLoop=1;jettySize=auto;html=1;" edge="1" parent="WIyWlLk6GJQsqaUBKTNV-1" source="pJbdp-igxGVZgu7KEz1X-21" target="pJbdp-igxGVZgu7KEz1X-24">
          <mxGeometry relative="1" as="geometry" />
        </mxCell>
        <mxCell id="pJbdp-igxGVZgu7KEz1X-21" value="A" style="ellipse;whiteSpace=wrap;html=1;aspect=fixed;" vertex="1" parent="WIyWlLk6GJQsqaUBKTNV-1">
          <mxGeometry x="360" y="110" width="80" height="80" as="geometry" />
        </mxCell>
        <mxCell id="pJbdp-igxGVZgu7KEz1X-27" value="" style="edgeStyle=orthogonalEdgeStyle;rounded=0;orthogonalLoop=1;jettySize=auto;html=1;" edge="1" parent="WIyWlLk6GJQsqaUBKTNV-1" source="pJbdp-igxGVZgu7KEz1X-24" target="WIyWlLk6GJQsqaUBKTNV-6">
          <mxGeometry relative="1" as="geometry" />
        </mxCell>
        <mxCell id="pJbdp-igxGVZgu7KEz1X-24" value="Print homepage" style="shape=parallelogram;perimeter=parallelogramPerimeter;whiteSpace=wrap;html=1;fixedSize=1;" vertex="1" parent="WIyWlLk6GJQsqaUBKTNV-1">
          <mxGeometry x="80" y="120" width="120" height="60" as="geometry" />
        </mxCell>
        <mxCell id="pJbdp-igxGVZgu7KEz1X-30" value="" style="edgeStyle=orthogonalEdgeStyle;rounded=0;orthogonalLoop=1;jettySize=auto;html=1;" edge="1" parent="WIyWlLk6GJQsqaUBKTNV-1" source="pJbdp-igxGVZgu7KEz1X-28" target="pJbdp-igxGVZgu7KEz1X-15">
          <mxGeometry relative="1" as="geometry" />
        </mxCell>
        <mxCell id="pJbdp-igxGVZgu7KEz1X-28" value="Print help page" style="shape=parallelogram;perimeter=parallelogramPerimeter;whiteSpace=wrap;html=1;fixedSize=1;" vertex="1" parent="WIyWlLk6GJQsqaUBKTNV-1">
          <mxGeometry x="490" y="30" width="120" height="60" as="geometry" />
        </mxCell>
        <mxCell id="pJbdp-igxGVZgu7KEz1X-40" value="" style="edgeStyle=orthogonalEdgeStyle;rounded=0;orthogonalLoop=1;jettySize=auto;html=1;" edge="1" parent="WIyWlLk6GJQsqaUBKTNV-1" source="pJbdp-igxGVZgu7KEz1X-33" target="pJbdp-igxGVZgu7KEz1X-39">
          <mxGeometry relative="1" as="geometry" />
        </mxCell>
        <mxCell id="pJbdp-igxGVZgu7KEz1X-33" value="prompt for user&#39;s&lt;br&gt;name" style="shape=parallelogram;perimeter=parallelogramPerimeter;whiteSpace=wrap;html=1;fixedSize=1;" vertex="1" parent="WIyWlLk6GJQsqaUBKTNV-1">
          <mxGeometry x="330" y="370" width="120" height="60" as="geometry" />
        </mxCell>
        <mxCell id="pJbdp-igxGVZgu7KEz1X-43" value="" style="edgeStyle=orthogonalEdgeStyle;rounded=0;orthogonalLoop=1;jettySize=auto;html=1;" edge="1" parent="WIyWlLk6GJQsqaUBKTNV-1" source="pJbdp-igxGVZgu7KEz1X-34" target="pJbdp-igxGVZgu7KEz1X-42">
          <mxGeometry relative="1" as="geometry" />
        </mxCell>
        <mxCell id="pJbdp-igxGVZgu7KEz1X-34" value="prompt user&#39;s&lt;br&gt;name" style="shape=parallelogram;perimeter=parallelogramPerimeter;whiteSpace=wrap;html=1;fixedSize=1;" vertex="1" parent="WIyWlLk6GJQsqaUBKTNV-1">
          <mxGeometry x="490" y="370" width="120" height="60" as="geometry" />
        </mxCell>
        <mxCell id="pJbdp-igxGVZgu7KEz1X-37" value="Print invalid input message" style="shape=parallelogram;perimeter=parallelogramPerimeter;whiteSpace=wrap;html=1;fixedSize=1;" vertex="1" parent="WIyWlLk6GJQsqaUBKTNV-1">
          <mxGeometry x="640" y="130" width="120" height="60" as="geometry" />
        </mxCell>
        <mxCell id="pJbdp-igxGVZgu7KEz1X-45" value="" style="edgeStyle=orthogonalEdgeStyle;rounded=0;orthogonalLoop=1;jettySize=auto;html=1;" edge="1" parent="WIyWlLk6GJQsqaUBKTNV-1" source="pJbdp-igxGVZgu7KEz1X-39" target="pJbdp-igxGVZgu7KEz1X-44">
          <mxGeometry relative="1" as="geometry" />
        </mxCell>
        <mxCell id="pJbdp-igxGVZgu7KEz1X-39" value="prompt user&#39;s&lt;br&gt;creditcard num" style="shape=parallelogram;perimeter=parallelogramPerimeter;whiteSpace=wrap;html=1;fixedSize=1;" vertex="1" parent="WIyWlLk6GJQsqaUBKTNV-1">
          <mxGeometry x="330" y="460" width="120" height="60" as="geometry" />
        </mxCell>
        <mxCell id="pJbdp-igxGVZgu7KEz1X-47" value="" style="edgeStyle=orthogonalEdgeStyle;rounded=0;orthogonalLoop=1;jettySize=auto;html=1;" edge="1" parent="WIyWlLk6GJQsqaUBKTNV-1" source="pJbdp-igxGVZgu7KEz1X-42" target="pJbdp-igxGVZgu7KEz1X-46">
          <mxGeometry relative="1" as="geometry" />
        </mxCell>
        <mxCell id="pJbdp-igxGVZgu7KEz1X-42" value="prompt user&#39;s&lt;br&gt;password" style="shape=parallelogram;perimeter=parallelogramPerimeter;whiteSpace=wrap;html=1;fixedSize=1;" vertex="1" parent="WIyWlLk6GJQsqaUBKTNV-1">
          <mxGeometry x="490" y="460" width="120" height="60" as="geometry" />
        </mxCell>
        <mxCell id="pJbdp-igxGVZgu7KEz1X-49" value="" style="edgeStyle=orthogonalEdgeStyle;rounded=0;orthogonalLoop=1;jettySize=auto;html=1;" edge="1" parent="WIyWlLk6GJQsqaUBKTNV-1" source="pJbdp-igxGVZgu7KEz1X-44" target="pJbdp-igxGVZgu7KEz1X-48">
          <mxGeometry relative="1" as="geometry" />
        </mxCell>
        <mxCell id="pJbdp-igxGVZgu7KEz1X-44" value="validate credit card number" style="whiteSpace=wrap;html=1;" vertex="1" parent="WIyWlLk6GJQsqaUBKTNV-1">
          <mxGeometry x="330" y="554.5" width="120" height="60" as="geometry" />
        </mxCell>
        <mxCell id="pJbdp-igxGVZgu7KEz1X-46" value="check array for user&#39;s credentials" style="whiteSpace=wrap;html=1;" vertex="1" parent="WIyWlLk6GJQsqaUBKTNV-1">
          <mxGeometry x="490" y="554.5" width="120" height="60" as="geometry" />
        </mxCell>
        <mxCell id="pJbdp-igxGVZgu7KEz1X-51" value="False" style="edgeStyle=orthogonalEdgeStyle;rounded=0;orthogonalLoop=1;jettySize=auto;html=1;" edge="1" parent="WIyWlLk6GJQsqaUBKTNV-1" source="pJbdp-igxGVZgu7KEz1X-48" target="pJbdp-igxGVZgu7KEz1X-50">
          <mxGeometry x="-0.3333" y="-20" relative="1" as="geometry">
            <mxPoint as="offset" />
          </mxGeometry>
        </mxCell>
        <mxCell id="pJbdp-igxGVZgu7KEz1X-56" value="True" style="edgeStyle=orthogonalEdgeStyle;rounded=0;orthogonalLoop=1;jettySize=auto;html=1;" edge="1" parent="WIyWlLk6GJQsqaUBKTNV-1" source="pJbdp-igxGVZgu7KEz1X-48" target="pJbdp-igxGVZgu7KEz1X-55">
          <mxGeometry relative="1" as="geometry" />
        </mxCell>
        <mxCell id="pJbdp-igxGVZgu7KEz1X-48" value="credit card is valid" style="rhombus;whiteSpace=wrap;html=1;" vertex="1" parent="WIyWlLk6GJQsqaUBKTNV-1">
          <mxGeometry x="350" y="640" width="80" height="80" as="geometry" />
        </mxCell>
        <mxCell id="pJbdp-igxGVZgu7KEz1X-52" style="edgeStyle=orthogonalEdgeStyle;rounded=0;orthogonalLoop=1;jettySize=auto;html=1;exitX=0.5;exitY=0;exitDx=0;exitDy=0;" edge="1" parent="WIyWlLk6GJQsqaUBKTNV-1" source="pJbdp-igxGVZgu7KEz1X-50" target="pJbdp-igxGVZgu7KEz1X-33">
          <mxGeometry relative="1" as="geometry">
            <mxPoint x="260" y="390" as="targetPoint" />
            <Array as="points">
              <mxPoint x="250" y="400" />
            </Array>
          </mxGeometry>
        </mxCell>
        <mxCell id="pJbdp-igxGVZgu7KEz1X-50" value="print invalid card message" style="whiteSpace=wrap;html=1;" vertex="1" parent="WIyWlLk6GJQsqaUBKTNV-1">
          <mxGeometry x="190" y="650" width="120" height="60" as="geometry" />
        </mxCell>
        <mxCell id="pJbdp-igxGVZgu7KEz1X-70" value="" style="edgeStyle=orthogonalEdgeStyle;rounded=0;orthogonalLoop=1;jettySize=auto;html=1;" edge="1" parent="WIyWlLk6GJQsqaUBKTNV-1" source="WIyWlLk6GJQsqaUBKTNV-6" target="pJbdp-igxGVZgu7KEz1X-69">
          <mxGeometry relative="1" as="geometry" />
        </mxCell>
        <mxCell id="WIyWlLk6GJQsqaUBKTNV-6" value="Input == 0" style="rhombus;whiteSpace=wrap;html=1;shadow=0;fontFamily=Helvetica;fontSize=12;align=center;strokeWidth=1;spacing=6;spacingTop=-4;" parent="WIyWlLk6GJQsqaUBKTNV-1" vertex="1">
          <mxGeometry x="90" y="220" width="100" height="100" as="geometry" />
        </mxCell>
        <mxCell id="pJbdp-igxGVZgu7KEz1X-58" value="" style="edgeStyle=orthogonalEdgeStyle;rounded=0;orthogonalLoop=1;jettySize=auto;html=1;" edge="1" parent="WIyWlLk6GJQsqaUBKTNV-1" source="pJbdp-igxGVZgu7KEz1X-55" target="pJbdp-igxGVZgu7KEz1X-57">
          <mxGeometry relative="1" as="geometry" />
        </mxCell>
        <mxCell id="pJbdp-igxGVZgu7KEz1X-55" value="prompt user&#39;s for password" style="shape=parallelogram;perimeter=parallelogramPerimeter;whiteSpace=wrap;html=1;fixedSize=1;" vertex="1" parent="WIyWlLk6GJQsqaUBKTNV-1">
          <mxGeometry x="330" y="760" width="120" height="60" as="geometry" />
        </mxCell>
        <mxCell id="pJbdp-igxGVZgu7KEz1X-60" value="" style="edgeStyle=orthogonalEdgeStyle;rounded=0;orthogonalLoop=1;jettySize=auto;html=1;" edge="1" parent="WIyWlLk6GJQsqaUBKTNV-1" source="pJbdp-igxGVZgu7KEz1X-57" target="pJbdp-igxGVZgu7KEz1X-59">
          <mxGeometry relative="1" as="geometry" />
        </mxCell>
        <mxCell id="pJbdp-igxGVZgu7KEz1X-57" value="prompt user to confirm credentials" style="shape=parallelogram;perimeter=parallelogramPerimeter;whiteSpace=wrap;html=1;fixedSize=1;" vertex="1" parent="WIyWlLk6GJQsqaUBKTNV-1">
          <mxGeometry x="180" y="760" width="120" height="60" as="geometry" />
        </mxCell>
        <mxCell id="pJbdp-igxGVZgu7KEz1X-61" value="False" style="edgeStyle=orthogonalEdgeStyle;rounded=0;orthogonalLoop=1;jettySize=auto;html=1;exitX=0;exitY=0.5;exitDx=0;exitDy=0;" edge="1" parent="WIyWlLk6GJQsqaUBKTNV-1" source="pJbdp-igxGVZgu7KEz1X-59">
          <mxGeometry x="-0.8425" relative="1" as="geometry">
            <mxPoint x="250" y="620" as="targetPoint" />
            <Array as="points">
              <mxPoint x="111" y="900" />
              <mxPoint x="111" y="620" />
              <mxPoint x="220" y="620" />
            </Array>
            <mxPoint as="offset" />
          </mxGeometry>
        </mxCell>
        <mxCell id="pJbdp-igxGVZgu7KEz1X-64" value="" style="edgeStyle=orthogonalEdgeStyle;rounded=0;orthogonalLoop=1;jettySize=auto;html=1;" edge="1" parent="WIyWlLk6GJQsqaUBKTNV-1" source="pJbdp-igxGVZgu7KEz1X-59" target="pJbdp-igxGVZgu7KEz1X-63">
          <mxGeometry relative="1" as="geometry" />
        </mxCell>
        <mxCell id="pJbdp-igxGVZgu7KEz1X-59" value="user confirms credentials" style="rhombus;whiteSpace=wrap;html=1;" vertex="1" parent="WIyWlLk6GJQsqaUBKTNV-1">
          <mxGeometry x="200" y="860" width="80" height="80" as="geometry" />
        </mxCell>
        <mxCell id="pJbdp-igxGVZgu7KEz1X-63" value="add user credentials to 2D array" style="whiteSpace=wrap;html=1;" vertex="1" parent="WIyWlLk6GJQsqaUBKTNV-1">
          <mxGeometry x="180" y="980" width="120" height="60" as="geometry" />
        </mxCell>
        <mxCell id="pJbdp-igxGVZgu7KEz1X-68" value="" style="edgeStyle=orthogonalEdgeStyle;rounded=0;orthogonalLoop=1;jettySize=auto;html=1;" edge="1" parent="WIyWlLk6GJQsqaUBKTNV-1" source="pJbdp-igxGVZgu7KEz1X-66" target="pJbdp-igxGVZgu7KEz1X-24">
          <mxGeometry relative="1" as="geometry" />
        </mxCell>
        <mxCell id="pJbdp-igxGVZgu7KEz1X-66" value="" style="whiteSpace=wrap;html=1;rounded=1;glass=0;strokeWidth=1;shadow=0;" vertex="1" parent="WIyWlLk6GJQsqaUBKTNV-1">
          <mxGeometry x="80" y="20" width="120" height="60" as="geometry" />
        </mxCell>
        <mxCell id="pJbdp-igxGVZgu7KEz1X-71" value="" style="edgeStyle=orthogonalEdgeStyle;rounded=0;orthogonalLoop=1;jettySize=auto;html=1;" edge="1" parent="WIyWlLk6GJQsqaUBKTNV-1" source="pJbdp-igxGVZgu7KEz1X-69" target="WIyWlLk6GJQsqaUBKTNV-11">
          <mxGeometry relative="1" as="geometry" />
        </mxCell>
        <mxCell id="pJbdp-igxGVZgu7KEz1X-69" value="print thank you message" style="shape=parallelogram;perimeter=parallelogramPerimeter;whiteSpace=wrap;html=1;fixedSize=1;shadow=0;strokeWidth=1;spacing=6;spacingTop=-4;" vertex="1" parent="WIyWlLk6GJQsqaUBKTNV-1">
          <mxGeometry x="80" y="360" width="120" height="60" as="geometry" />
        </mxCell>
      </root>
    </mxGraphModel>
  </diagram>
</mxfile>
